{"title":"Blame (2017) Eng Subs HDRip H264 MPEG-4 AAC Spy1984","magnet":"magnet:?xt=urn:btih:a1c3f101f7250f4c50a472a29aa296fe60a65982&dn=Blame+%282017%29+Eng+Subs+HDRip+H264+MPEG-4+AAC+Spy1984&tr=udp%3A%2F%2Ftracker.leechers-paradise.org%3A6969&tr=udp%3A%2F%2Fzer0day.ch%3A1337&tr=udp%3A%2F%2Fopen.demonii.com%3A1337&tr=udp%3A%2F%2Ftracker.coppersurfer.tk%3A6969&tr=udp%3A%2F%2Fexodus.desync.com%3A6969","uploader":"spy1984","categoryP":"video","categoryS":"movies","size":"433380583","seeders":"1","leechers":"29","description":"A substitute drama teacher at a suburban high school develops a taboo relationship with an unstable student, sparking a trail of jealous sabotage from the student&apos;s peers.\r\n\r\n <a href=\"\nhttp://4kw.in/4627.html\" rel=\"nofollow\" target=\"_NEW\">\nhttp://4kw.in/4627.html</a>\r\n <a href=\"\nhttp://4kw.in/4628.html\" rel=\"nofollow\" target=\"_NEW\">\nhttp://4kw.in/4628.html</a>\r\n <a href=\"\nhttp://4kw.in/4629.html\" rel=\"nofollow\" target=\"_NEW\">\nhttp://4kw.in/4629.html</a>\r\n <a href=\"\nhttp://4kw.in/4630.html\" rel=\"nofollow\" target=\"_NEW\">\nhttp://4kw.in/4630.html</a>\r\n\r\n\r\n\r\n\r\nGeneral\r\n\r\nFormat                                   : MPEG-4\r\nFormat profile                           : Base Media\r\nCodec ID                                 : isom (isom/iso2/avc1/mp41)\r\nFile size                                : 413 MiB\r\nDuration                                 : 1 h 39 min\r\nOverall bit rate                         : 581 kb/s\r\nWriting application                      : Lavf57.83.100\r\n\r\nID                                       : 1\r\nFormat                                   : AVC\r\nFormat/Info                              : Advanced Video Codec\r\nFormat profile                           : <a href=\"/cdn-cgi/l/email-protection\" class=\"__cf_email__\" data-cfemail=\"b4fcddd3dcf4f8879a85\">[email&#xA0;protected]</a>\r\nFormat settings                          : CABAC / 5 Ref Frames\r\nFormat settings, CABAC                   : Yes\r\nFormat settings, RefFrames               : 5 frames\r\nCodec ID                                 : avc1\r\nCodec ID/Info                            : Advanced Video Coding\r\nDuration                                 : 1 h 39 min\r\nBit rate                                 : 512 kb/s\r\nWidth                                    : 720 pixels\r\nHeight                                   : 304 pixels\r\nDisplay aspect ratio                     : 2.35:1\r\nFrame rate mode                          : Constant\r\nFrame rate                               : 23.976 (24000/1001) FPS\r\nColor space                              : YUV\r\nChroma subsampling                       : 4:2:0\r\nBit depth                                : 8 bits\r\nScan type                                : Progressive\r\nBits/(Pixel*Frame)                       : 0.098\r\nStream size                              : 364 MiB (88%)\r\n\r\n\r\n\r\nAudio\r\n\r\nID                                       : 2\r\nFormat                                   : AAC\r\nFormat/Info                              : Advanced Audio Codec\r\nFormat profile                           : LC\r\nCodec ID                                 : mp4a-40-2\r\nDuration                                 : 1 h 39 min\r\nBit rate mode                            : Constant\r\nBit rate                                 : 64.7 kb/s\r\nChannel(s)                               : 2 channels\r\nChannel positions                        : Front: L R\r\nSampling rate                            : 48.0 kHz\r\nFrame rate                               : 46.875 FPS (1024 SPF)\r\nCompression mode                         : Lossy\r\nStream size                              : 46.0 MiB (11%)\r\nDefault                                  : Yes\r\nAlternate group                          : 1","last_updated":"2018-01-06T12:02:39.413Z","parsed":{"xt":"urn:btih:a1c3f101f7250f4c50a472a29aa296fe60a65982","dn":"Blame (2017) Eng Subs HDRip H264 MPEG-4 AAC Spy1984","tr":["udp://exodus.desync.com:6969","udp://open.demonii.com:1337","udp://tracker.coppersurfer.tk:6969","udp://tracker.leechers-paradise.org:6969","udp://zer0day.ch:1337"],"infoHash":"a1c3f101f7250f4c50a472a29aa296fe60a65982","infoHashBuffer":{"type":"Buffer","data":[161,195,241,1,247,37,15,76,80,164,114,162,154,162,150,254,96,166,89,130]},"name":"Blame (2017) Eng Subs HDRip H264 MPEG-4 AAC Spy1984","announce":["udp://exodus.desync.com:6969","udp://open.demonii.com:1337","udp://tracker.coppersurfer.tk:6969","udp://tracker.leechers-paradise.org:6969","udp://zer0day.ch:1337"],"urlList":[]}}